<svg width="7670" height="630" viewBox="0 0 7670 630" fill="none" xmlns="http://www.w3.org/2000/svg">
<path d="M7316.92 163.8C7288.72 163.8 7262.62 171 7238.62 185.4C7215.22 199.2 7196.92 218.1 7183.72 242.1H7617.52V387.9H7183.72C7192.72 403.5 7203.82 417.3 7217.02 429.3C7230.22 440.7 7245.52 449.7 7262.92 456.3C7280.32 462.9 7298.32 466.2 7316.92 466.2H7669.72V630H7316.92C7259.92 630 7207.12 615.9 7158.52 587.7C7110.52 559.5 7072.42 521.4 7044.22 473.4C7016.02 424.8 7001.92 372 7001.92 315C7001.92 258 7016.02 205.5 7044.22 157.5C7072.42 108.9 7110.52 70.5 7158.52 42.3C7207.12 14.1 7259.92 0 7316.92 0H7669.72V163.8H7316.92Z" fill="black"/>
<path d="M6672.52 163.8H6436.72V352.8C6436.72 373.2 6441.52 392.1 6451.12 409.5C6461.32 426.9 6475.12 440.7 6492.52 450.9C6510.52 461.1 6529.72 466.2 6550.12 466.2H6672.52V630H6550.12C6473.32 630 6407.92 603 6353.92 549C6299.92 494.4 6272.92 429 6272.92 352.8V163.8H6042.52V0H6672.52V163.8Z" fill="black"/>
<path d="M5727.52 163.8H5491.72V352.8C5491.72 373.2 5496.52 392.1 5506.12 409.5C5516.32 426.9 5530.12 440.7 5547.52 450.9C5565.52 461.1 5584.72 466.2 5605.12 466.2H5727.52V630H5605.12C5528.32 630 5462.92 603 5408.92 549C5354.92 494.4 5327.92 429 5327.92 352.8V163.8H5097.52V0H5727.52V163.8Z" fill="black"/>
<path d="M4423.91 163.8C4395.71 163.8 4369.61 171 4345.61 185.4C4322.21 199.2 4303.91 218.1 4290.71 242.1H4724.51V387.9H4290.71C4299.71 403.5 4310.81 417.3 4324.01 429.3C4337.21 440.7 4352.51 449.7 4369.91 456.3C4387.31 462.9 4405.31 466.2 4423.91 466.2H4776.71V630H4423.91C4366.91 630 4314.11 615.9 4265.51 587.7C4217.51 559.5 4179.41 521.4 4151.21 473.4C4123.01 424.8 4108.91 372 4108.91 315C4108.91 258 4123.01 205.5 4151.21 157.5C4179.41 108.9 4217.51 70.5 4265.51 42.3C4314.11 14.1 4366.91 0 4423.91 0H4776.71V163.8H4423.91Z" fill="black"/>
<path d="M3589.82 242.1C3624.62 242.1 3656.72 250.8 3686.12 268.2C3716.12 285.6 3739.82 309.3 3757.22 339.3C3774.62 368.7 3783.32 401.1 3783.32 436.5C3783.32 489.9 3764.42 535.5 3726.62 573.3C3688.82 611.1 3643.22 630 3589.82 630H3115.52V466.2H3580.82C3591.62 466.2 3600.62 462.6 3607.82 455.4C3615.62 447.6 3619.52 438.3 3619.52 427.5C3619.52 416.1 3615.62 406.8 3607.82 399.6C3600.62 391.8 3591.62 387.9 3580.82 387.9H3279.32C3225.92 387.9 3180.32 369 3142.52 331.2C3104.72 293.4 3085.82 247.8 3085.82 194.4C3085.82 140.4 3104.72 94.5 3142.52 56.7C3180.32 18.9 3225.92 0 3279.32 0H3753.62V163.8H3288.32C3277.52 163.8 3268.22 167.7 3260.42 175.5C3253.22 182.7 3249.62 192 3249.62 203.4C3249.62 214.2 3253.22 223.5 3260.42 231.3C3268.22 238.5 3277.52 242.1 3288.32 242.1H3589.82Z" fill="black"/>
<path d="M2561.33 242.1C2596.13 242.1 2628.23 250.8 2657.63 268.2C2687.63 285.6 2711.33 309.3 2728.73 339.3C2746.13 368.7 2754.83 401.1 2754.83 436.5C2754.83 489.9 2735.93 535.5 2698.13 573.3C2660.33 611.1 2614.73 630 2561.33 630H2087.03V466.2H2552.33C2563.13 466.2 2572.13 462.6 2579.33 455.4C2587.13 447.6 2591.03 438.3 2591.03 427.5C2591.03 416.1 2587.13 406.8 2579.33 399.6C2572.13 391.8 2563.13 387.9 2552.33 387.9H2250.83C2197.43 387.9 2151.83 369 2114.03 331.2C2076.23 293.4 2057.33 247.8 2057.33 194.4C2057.33 140.4 2076.23 94.5 2114.03 56.7C2151.83 18.9 2197.43 0 2250.83 0H2725.13V163.8H2259.83C2249.03 163.8 2239.73 167.7 2231.93 175.5C2224.73 182.7 2221.13 192 2221.13 203.4C2221.13 214.2 2224.73 223.5 2231.93 231.3C2239.73 238.5 2249.03 242.1 2259.83 242.1H2561.33Z" fill="black"/>
<path d="M1488.32 0C1549.52 0 1601.72 21.9 1644.92 65.7C1688.72 108.9 1710.62 161.1 1710.62 222.3V630H1167.02C1137.62 630 1110.92 621.6 1086.92 604.8C1063.52 587.4 1047.02 564.9 1037.42 537.3C1028.42 509.1 1028.12 481.2 1036.52 453.6C1045.52 425.4 1061.72 402.6 1085.12 385.2L1383.02 163.8H1004.12V0H1488.32ZM1546.82 466.2V244.8L1250.72 466.2H1546.82Z" fill="black"/>
<path d="M706.5 0L429.3 322.2L694.8 630H478.8L283.5 403.2H163.8V630H0V0H163.8V240.3H283.5L490.5 0H706.5Z" fill="black"/>
</svg>
